<?xml version="1.0" encoding="iso-8859-1"?>
<!-- Generator: Adobe Illustrator 21.0.0, SVG Export Plug-In . SVG Version: 6.00 Build 0)  -->
<svg version="1.1" id="Capa_1" xmlns="http://www.w3.org/2000/svg" xmlns:xlink="http://www.w3.org/1999/xlink" x="0px" y="0px"
	 viewBox="-49 141 512 512" style="enable-background:new -49 141 512 512;" xml:space="preserve">
<path style="fill:#FFFFFF;" d="M409.737,563.218l-22.865-288.115C385.448,256.54,369.749,242,351.132,242H305.97v-2.03
	c0-54.573-44.397-98.97-98.969-98.97s-98.969,44.397-98.969,98.969v2.03H62.871c-18.617,0-34.316,14.54-35.736,33.064L4.262,563.257
	c-1.77,23.075,6.235,46.048,21.961,63.026S64.242,653,87.384,653h239.232c23.142,0,45.436-9.738,61.162-26.717
	C403.504,609.304,411.509,586.332,409.737,563.218z M138.022,239.969c0-38.035,30.945-68.979,68.979-68.979
	s68.979,30.945,68.979,68.979v2.03H138.022V239.969z M365.776,605.905c-10.218,11.03-24.124,17.105-39.16,17.105H87.385
	c-15.036,0-28.942-6.075-39.16-17.105c-10.217-11.031-15.211-25.363-14.063-40.315l22.871-288.195
	c0.232-3.032,2.796-5.406,5.837-5.406h45.162v36.935c0,8.281,6.714,14.995,14.995,14.995s14.995-6.714,14.995-14.995v-36.935
	h137.959v36.935c0,8.281,6.714,14.995,14.995,14.995s14.995-6.714,14.995-14.995v-36.935h45.162c3.041,0,5.604,2.374,5.84,5.446
	l22.865,288.115C380.987,580.542,375.993,594.873,365.776,605.905z"/>
<path style="fill:#FFFFFF;" d="M208.964,358.598c-8.281-0.001-14.995,6.713-14.995,14.995v64.314h-64.314
	c-8.281-0.001-14.995,6.713-14.995,14.995s6.713,14.995,14.995,14.995h64.314v64.314c0,8.282,6.713,14.995,14.995,14.995
	c4.141,0,7.89-1.678,10.603-4.391c2.713-2.713,4.393-6.462,4.391-10.603l0-64.314h64.314c4.141,0,7.89-1.678,10.603-4.391
	c2.713-2.713,4.393-6.462,4.391-10.603c0-8.282-6.713-14.995-14.995-14.995h-64.314v-64.314
	C223.958,365.312,217.244,358.599,208.964,358.598z"/>
</svg>
